<?xml version="1.0" encoding="utf-8"?>
<!-- Uploaded to: SVG Repo, www.svgrepo.com, Generator: SVG Repo Mixer Tools -->
<svg width="800px" height="800px" viewBox="0 0 1024 1024" class="icon"  version="1.1" xmlns="http://www.w3.org/2000/svg"><path d="M299.008 286.72h61.44v61.44h-61.44z" fill="#E60012" /><path d="M358.4 286.72h61.44v61.44h-61.44z" fill="#E60012" /><path d="M481.28 225.28h61.44v61.44h-61.44zM540.672 163.84h61.44v61.44h-61.44z" fill="#009944" /><path d="M602.112 286.72h61.44v61.44h-61.44zM237.568 346.112h61.44v61.44h-61.44zM237.568 407.552h61.44v61.44h-61.44zM299.008 346.112h61.44v61.44h-61.44z" fill="#E60012" /><path d="M358.4 346.112h61.44v61.44h-61.44zM299.008 407.552h61.44v61.44h-61.44z" fill="#E60012" /><path d="M358.4 407.552h61.44v61.44h-61.44zM419.84 346.112h61.44v61.44h-61.44zM419.84 407.552h61.44v61.44h-61.44zM481.28 407.552h61.44v61.44h-61.44zM540.672 346.112h61.44v61.44h-61.44zM602.112 346.112h61.44v61.44h-61.44z" fill="#E60012" /><path d="M540.672 407.552h61.44v61.44h-61.44zM602.112 407.552h61.44v61.44h-61.44zM176.128 407.552h61.44v61.44h-61.44zM237.568 468.992h61.44v61.44h-61.44zM176.128 468.992h61.44v61.44h-61.44z" fill="#E60012" /><path d="M237.568 528.384h61.44v61.44h-61.44zM299.008 468.992h61.44v61.44h-61.44z" fill="#E60012" /><path d="M358.4 468.992h61.44v61.44h-61.44z" fill="#E60012" /><path d="M299.008 528.384h61.44v61.44h-61.44z" fill="#E60012" /><path d="M358.4 528.384h61.44v61.44h-61.44zM419.84 468.992h61.44v61.44h-61.44zM481.28 468.992h61.44v61.44h-61.44z" fill="#E60012" /><path d="M419.84 528.384h61.44v61.44h-61.44zM481.28 528.384h61.44v61.44h-61.44z" fill="#E60012" /><path d="M540.672 468.992h61.44v61.44h-61.44zM602.112 468.992h61.44v61.44h-61.44z" fill="#E60012" /><path d="M540.672 528.384h61.44v61.44h-61.44zM602.112 528.384h61.44v61.44h-61.44zM176.128 528.384h61.44v61.44h-61.44zM176.128 589.824h61.44v61.44h-61.44zM237.568 589.824h61.44v61.44h-61.44zM237.568 651.264h61.44v61.44h-61.44zM299.008 589.824h61.44v61.44h-61.44z" fill="#E60012" /><path d="M358.4 589.824h61.44v61.44h-61.44zM299.008 651.264h61.44v61.44h-61.44z" fill="#E60012" /><path d="M358.4 651.264h61.44v61.44h-61.44zM419.84 589.824h61.44v61.44h-61.44zM481.28 589.824h61.44v61.44h-61.44zM419.84 651.264h61.44v61.44h-61.44zM481.28 651.264h61.44v61.44h-61.44z" fill="#E60012" /><path d="M540.672 589.824h61.44v61.44h-61.44zM602.112 589.824h61.44v61.44h-61.44zM540.672 651.264h61.44v61.44h-61.44zM602.112 651.264h61.44v61.44h-61.44zM663.552 286.72h61.44v61.44h-61.44z" fill="#E60012" /><path d="M663.552 346.112h61.44v61.44h-61.44z" fill="#E60012" /><path d="M722.944 346.112h61.44v61.44h-61.44zM663.552 407.552h61.44v61.44h-61.44z" fill="#E60012" /><path d="M722.944 407.552h61.44v61.44h-61.44zM663.552 468.992h61.44v61.44h-61.44z" fill="#E60012" /><path d="M722.944 468.992h61.44v61.44h-61.44z" fill="#E60012" /><path d="M663.552 528.384h61.44v61.44h-61.44z" fill="#E60012" /><path d="M722.944 528.384h61.44v61.44h-61.44zM663.552 589.824h61.44v61.44h-61.44z" fill="#E60012" /><path d="M722.944 589.824h61.44v61.44h-61.44zM663.552 651.264h61.44v61.44h-61.44z" fill="#E60012" /><path d="M722.944 651.264h61.44v61.44h-61.44zM237.568 710.656h61.44v61.44h-61.44zM299.008 710.656h61.44v61.44h-61.44z" fill="#E60012" /><path d="M358.4 710.656h61.44v61.44h-61.44zM299.008 772.096h61.44v61.44h-61.44z" fill="#E60012" /><path d="M358.4 772.096h61.44v61.44h-61.44zM419.84 710.656h61.44v61.44h-61.44zM481.28 710.656h61.44v61.44h-61.44zM419.84 772.096h61.44v61.44h-61.44zM481.28 772.096h61.44v61.44h-61.44z" fill="#E60012" /><path d="M540.672 710.656h61.44v61.44h-61.44zM602.112 710.656h61.44v61.44h-61.44zM540.672 772.096h61.44v61.44h-61.44zM602.112 772.096h61.44v61.44h-61.44zM663.552 710.656h61.44v61.44h-61.44z" fill="#E60012" /><path d="M722.944 710.656h61.44v61.44h-61.44zM663.552 772.096h61.44v61.44h-61.44zM784.384 407.552h61.44v61.44h-61.44zM784.384 468.992h61.44v61.44h-61.44z" fill="#E60012" /><path d="M784.384 528.384h61.44v61.44h-61.44zM784.384 589.824h61.44v61.44h-61.44zM358.4 833.536h61.44v61.44h-61.44zM419.84 833.536h61.44v61.44h-61.44zM540.672 833.536h61.44v61.44h-61.44zM602.112 833.536h61.44v61.44h-61.44z" fill="#E60012" /></svg>