<?xml version="1.0" encoding="iso-8859-1"?>
<!-- Uploaded to: SVG Repo, www.svgrepo.com, Generator: SVG Repo Mixer Tools -->
<svg height="800px" width="800px" version="1.1" id="Layer_1" xmlns="http://www.w3.org/2000/svg" xmlns:xlink="http://www.w3.org/1999/xlink" 
	 viewBox="0 0 512 512" xml:space="preserve">
<path style="fill:#FFF082;" d="M213.244,452.676c0,9.446,7.656,17.102,17.102,17.102h51.307c9.446,0,17.102-7.656,17.102-17.102
	v-51.578c0-13.023,7.318-25.086,19.1-30.634c49.351-23.238,83.514-73.404,83.514-131.566c0-85.742-74.233-154.147-161.936-144.451
	c-65.874,7.282-119.451,60.021-127.638,125.787c-8.195,65.834,27.68,124.36,82.101,150.112c11.86,5.612,19.349,17.622,19.349,30.742
	v51.588H213.244z"/>
<circle style="fill:#FFF8C1;" cx="256" cy="238.898" r="119.716"/>
<circle style="fill:#FFFFFF;" cx="256" cy="238.898" r="94.063"/>
<path style="fill:#959CB5;" d="M230.347,469.779v17.102c0,9.445,7.658,17.102,17.102,17.102h17.102
	c9.445,0,17.102-7.658,17.102-17.102v-17.102H230.347z"/>
<path style="fill:#C7CFE2;" d="M281.653,469.779h-51.307c-9.446,0-17.102-7.656-17.102-17.102v-34.205h85.511v34.205
	C298.756,462.121,291.099,469.779,281.653,469.779z"/>
<g>
	<path style="fill:#E1A546;" d="M259.199,290.205h-6.398c-4.584,0-8.353-3.615-8.544-8.195l-4.648-111.536
		c-0.388-9.32,7.062-17.087,16.39-17.087l0,0c9.328,0,16.778,7.768,16.39,17.087l-4.648,111.536
		C267.553,286.59,263.784,290.205,259.199,290.205z"/>
	<circle style="fill:#E1A546;" cx="256" cy="337.236" r="12.827"/>
</g>
<path d="M358.292,124.6c-32.919-29.48-75.441-43.02-119.741-38.122C169.115,94.155,112.46,149.99,103.84,219.243
	c-8.252,66.291,26.561,129.926,86.626,158.349c8.967,4.243,14.761,13.466,14.761,23.496v51.588c0,11.047,7.172,20.445,17.102,23.799
	v10.406c0,13.851,11.268,25.119,25.119,25.119h17.102c13.851,0,25.119-11.268,25.119-25.119v-10.406
	c9.93-3.354,17.102-12.752,17.102-23.799v-51.578c0-10.056,5.691-19.235,14.497-23.382c25.963-12.226,47.948-31.445,63.578-55.581
	c16.054-24.791,24.539-53.574,24.539-83.237C409.386,195.339,390.763,153.678,358.292,124.6z M264.551,495.967h-17.102
	c-5.01,0-9.086-4.076-9.086-9.086v-9.086h35.273v9.086C273.637,491.891,269.561,495.967,264.551,495.967z M281.653,461.762h-51.307
	c-5.01,0-9.086-4.076-9.086-9.086v-26.188h69.478v26.188C290.739,457.686,286.663,461.762,281.653,461.762z M371.39,313.42
	c-14.003,21.624-33.695,38.841-56.95,49.791c-14.398,6.779-23.702,21.65-23.702,37.887v9.357h-69.478v-9.367
	c0-16.197-9.396-31.109-23.937-37.99c-53.794-25.456-84.97-82.47-77.575-141.875c7.715-61.973,58.419-111.94,120.564-118.81
	c5.326-0.589,10.624-0.881,15.876-0.881c33.896,0,65.883,12.153,91.406,35.009c29.079,26.043,45.757,63.349,45.757,102.355
	C393.353,265.462,385.758,291.231,371.39,313.42z"/>
<path d="M486.881,230.881h-51.307c-4.427,0-8.017,3.589-8.017,8.017s3.589,8.017,8.017,8.017h51.307
	c4.427,0,8.017-3.589,8.017-8.017S491.308,230.881,486.881,230.881z"/>
<path d="M84.443,238.898c0-4.427-3.589-8.017-8.017-8.017H25.119c-4.427,0-8.017,3.589-8.017,8.017s3.589,8.017,8.017,8.017h51.307
	C80.853,246.914,84.443,243.325,84.443,238.898z"/>
<path d="M256,67.34c4.427,0,8.017-3.588,8.017-8.017V8.017C264.017,3.589,260.427,0,256,0c-4.427,0-8.017,3.589-8.017,8.017v51.307
	C247.983,63.752,251.573,67.34,256,67.34z"/>
<path d="M256,145.37c-6.716,0-12.975,2.669-17.624,7.516c-4.649,4.847-7.056,11.212-6.776,17.922l4.648,111.536
	c0.372,8.904,7.643,15.877,16.554,15.877h6.398c8.911,0,16.182-6.975,16.554-15.877l4.648-111.536
	c0.279-6.711-2.127-13.075-6.776-17.922C268.977,148.039,262.716,145.37,256,145.37z M259.734,281.676
	c-0.012,0.288-0.246,0.512-0.534,0.512h-6.398c-0.288,0-0.522-0.226-0.534-0.512l-4.648-111.536c-0.096-2.305,0.73-4.49,2.327-6.156
	c1.597-1.665,3.746-2.581,6.053-2.581c2.307,0,4.456,0.916,6.053,2.581s2.423,3.851,2.327,6.156L259.734,281.676z"/>
<path d="M256,316.392c-11.493,0-20.843,9.351-20.843,20.843c0,11.493,9.351,20.843,20.843,20.843s20.843-9.351,20.843-20.843
	C276.843,325.743,267.493,316.392,256,316.392z M256,342.046c-2.652,0-4.81-2.158-4.81-4.81c0-2.652,2.158-4.81,4.81-4.81
	c2.652,0,4.81,2.158,4.81,4.81C260.81,339.888,258.652,342.046,256,342.046z"/>
<path d="M341.779,90.325c1.262,0.729,2.641,1.075,4.001,1.075c2.771,0,5.465-1.438,6.95-4.009l12.827-22.217
	c2.214-3.834,0.9-8.737-2.934-10.951c-3.834-2.215-8.737-0.9-10.951,2.934l-12.827,22.217
	C336.631,83.208,337.945,88.111,341.779,90.325z"/>
<path d="M170.221,387.471c-3.835-2.215-8.738-0.9-10.951,2.934l-12.827,22.217c-2.214,3.834-0.9,8.737,2.934,10.951
	c1.262,0.729,2.641,1.075,4.001,1.075c2.771,0,5.465-1.439,6.95-4.009l12.827-22.217
	C175.369,394.587,174.055,389.684,170.221,387.471z"/>
<path d="M159.27,87.391c1.485,2.572,4.179,4.009,6.95,4.009c1.36,0,2.739-0.346,4.001-1.075c3.834-2.214,5.148-7.117,2.934-10.951
	l-12.827-22.217c-2.214-3.834-7.117-5.148-10.951-2.934c-3.834,2.214-5.148,7.117-2.934,10.951L159.27,87.391z"/>
<path d="M352.73,390.405c-2.214-3.835-7.117-5.147-10.951-2.934c-3.834,2.214-5.148,7.117-2.934,10.951l12.827,22.217
	c1.485,2.572,4.179,4.009,6.95,4.009c1.36,0,2.739-0.346,4.001-1.075c3.834-2.214,5.148-7.117,2.934-10.951L352.73,390.405z"/>
<path d="M437.741,334.569l-22.217-12.827c-3.835-2.215-8.737-0.9-10.951,2.934c-2.214,3.834-0.9,8.737,2.934,10.951l22.217,12.827
	c1.262,0.729,2.641,1.075,4.001,1.075c2.771,0,5.465-1.438,6.95-4.009C442.889,341.686,441.575,336.783,437.741,334.569z"/>
<path d="M74.259,143.226l22.217,12.827c1.262,0.729,2.641,1.075,4.001,1.075c2.771,0,5.465-1.438,6.95-4.009
	c2.214-3.834,0.9-8.737-2.934-10.951l-22.217-12.827c-3.834-2.215-8.737-0.9-10.951,2.934
	C69.111,136.11,70.425,141.013,74.259,143.226z"/>
<path d="M411.523,157.128c1.36,0,2.738-0.346,4.001-1.075l22.217-12.827c3.834-2.214,5.148-7.117,2.934-10.951
	c-2.214-3.835-7.118-5.148-10.951-2.934l-22.217,12.827c-3.834,2.214-5.148,7.117-2.934,10.951
	C406.058,155.691,408.752,157.128,411.523,157.128z"/>
<path d="M96.476,321.742l-22.217,12.827c-3.834,2.214-5.148,7.117-2.934,10.951c1.485,2.572,4.179,4.009,6.95,4.009
	c1.36,0,2.739-0.346,4.001-1.075l22.217-12.827c3.834-2.214,5.148-7.117,2.934-10.951
	C105.213,320.841,100.31,319.529,96.476,321.742z"/>
</svg>